<svg width="20" height="20" viewBox="0 0 20 20" fill="none" xmlns="http://www.w3.org/2000/svg">
  <path d="M10 13C11.6569 13 13 11.6569 13 10C13 8.34315 11.6569 7 10 7C8.34315 7 7 8.34315 7 10C7 11.6569 8.34315 13 10 13Z" stroke="#666666" stroke-width="2"/>
  <path d="M16.7639 12.5C16.9233 11.6926 17.0039 10.8577 17 10C17.0039 9.14229 16.9233 8.30736 16.7639 7.5L18.9239 6.25C19.1646 6.11674 19.2909 5.8399 19.2439 5.5625L18.4939 2.9375C18.4469 2.6601 18.2351 2.44252 17.9639 2.375L15.4439 1.875C14.9207 1.16221 14.3098 0.519883 13.6239 -0.0374999L13.9439 -2.625C13.9705 -2.90573 13.8186 -3.17481 13.5639 -3.3125L11.2439 -4.6875C10.9892 -4.82519 10.6766 -4.82519 10.4239 -4.6875L8.09386 -3.3125C7.83916 -3.17481 7.68727 -2.90573 7.71386 -2.625L8.03386 -0.0374999C7.34802 0.519883 6.73708 1.16221 6.21386 1.875L3.69386 2.375C3.42273 2.44252 3.21089 2.6601 3.16386 2.9375L2.41386 5.5625C2.36684 5.8399 2.49317 6.11674 2.73386 6.25L4.89386 7.5C4.73448 8.30736 4.65389 9.14229 4.65786 10C4.65389 10.8577 4.73448 11.6926 4.89386 12.5L2.73386 13.75C2.49317 13.8833 2.36684 14.1601 2.41386 14.4375L3.16386 17.0625C3.21089 17.3399 3.42273 17.5575 3.69386 17.625L6.21386 18.125C6.73708 18.8378 7.34802 19.4801 8.03386 20.0375L7.71386 22.625C7.68727 22.9057 7.83916 23.1748 8.09386 23.3125L10.4239 24.6875C10.6766 24.8252 10.9892 24.8252 11.2439 24.6875L13.5639 23.3125C13.8186 23.1748 13.9705 22.9057 13.9439 22.625L13.6239 20.0375C14.3098 19.4801 14.9207 18.8378 15.4439 18.125L17.9639 17.625C18.2351 17.5575 18.4469 17.3399 18.4939 17.0625L19.2439 14.4375C19.2909 14.1601 19.1646 13.8833 18.9239 13.75L16.7639 12.5Z" stroke="#666666" stroke-width="2"/>
</svg> 